<svg xmlns="http://www.w3.org/2000/svg" xmlns:xlink="http://www.w3.org/1999/xlink" width="375" viewBox="0 0 375 375" height="375" version="1.0"><defs><g id="a"><path d="M 33.828125 -40.703125 C 29.429688 -42.992188 25.523438 -44.140625 22.109375 -44.140625 C 19.578125 -44.140625 17.570312 -43.578125 16.09375 -42.453125 C 14.625 -41.328125 13.890625 -39.785156 13.890625 -37.828125 C 13.890625 -35.910156 14.8125 -34.304688 16.65625 -33.015625 C 18.507812 -31.734375 21.097656 -30.457031 24.421875 -29.1875 C 26.941406 -28.300781 29.101562 -27.285156 30.90625 -26.140625 C 32.707031 -24.992188 34.191406 -23.4375 35.359375 -21.46875 C 36.535156 -19.507812 37.125 -17.03125 37.125 -14.03125 C 37.125 -11.320312 36.441406 -8.867188 35.078125 -6.671875 C 33.722656 -4.472656 31.757812 -2.71875 29.1875 -1.40625 C 26.613281 -0.09375 23.570312 0.5625 20.0625 0.5625 C 16.976562 0.5625 13.9375 0.0820312 10.9375 -0.875 C 7.945312 -1.832031 5.285156 -3.15625 2.953125 -4.84375 L 6.59375 -11.234375 C 8.320312 -9.921875 10.367188 -8.832031 12.734375 -7.96875 C 15.097656 -7.101562 17.285156 -6.671875 19.296875 -6.671875 C 21.773438 -6.671875 23.945312 -7.265625 25.8125 -8.453125 C 27.6875 -9.648438 28.625 -11.488281 28.625 -13.96875 C 28.625 -15.925781 27.835938 -17.5625 26.265625 -18.875 C 24.703125 -20.1875 22.519531 -21.378906 19.71875 -22.453125 C 16.820312 -23.523438 14.410156 -24.585938 12.484375 -25.640625 C 10.566406 -26.703125 8.914062 -28.175781 7.53125 -30.0625 C 6.15625 -31.957031 5.46875 -34.332031 5.46875 -37.1875 C 5.46875 -41.351562 6.882812 -44.707031 9.71875 -47.25 C 12.550781 -49.800781 16.28125 -51.171875 20.90625 -51.359375 C 24.28125 -51.359375 27.238281 -50.972656 29.78125 -50.203125 C 32.332031 -49.429688 34.707031 -48.34375 36.90625 -46.9375 Z M 33.828125 -40.703125"/></g><g id="b"><path d="M 15.234375 -51.078125 L 15.234375 0 L 7.015625 0 L 7.015625 -51.078125 Z M 13.4375 -54.359375 L 8.53125 -54.359375 L 14.21875 -63.765625 L 22.90625 -63.765625 Z M 13.4375 -54.359375"/></g><g id="c"><path d="M 52.140625 -51.078125 L 52.140625 1.828125 L 51.921875 1.828125 L 15.09375 -33.890625 L 15.296875 0 L 7.015625 0 L 7.015625 -52.84375 L 7.4375 -52.84375 L 44.140625 -16.703125 L 44 -51.078125 Z M 52.140625 -51.078125"/></g><g id="d"><path d="M 33.265625 -12 L 14.671875 -12 L 9.75 0 L 1.6875 0 L 24.28125 -53.1875 L 24.765625 -53.1875 L 47.359375 0 L 37.96875 0 Z M 30.53125 -19.015625 L 24.140625 -35.15625 L 17.546875 -19.015625 Z M 30.53125 -19.015625"/></g><g id="e"><path d="M 34.953125 0 L 23.4375 -17.75 L 15.234375 -17.75 L 15.234375 0 L 7.015625 0 L 7.015625 -51.078125 L 21.40625 -51.078125 C 27.113281 -51.078125 31.6875 -49.628906 35.125 -46.734375 C 38.5625 -43.835938 40.28125 -39.816406 40.28125 -34.671875 C 40.28125 -31.535156 39.613281 -28.617188 38.28125 -25.921875 C 36.945312 -23.234375 34.851562 -21.164062 32 -19.71875 L 44.421875 0 Z M 15.234375 -25.609375 L 22.53125 -25.609375 C 25.800781 -25.609375 28.171875 -26.507812 29.640625 -28.3125 C 31.117188 -30.113281 31.859375 -32.140625 31.859375 -34.390625 C 31.859375 -35.691406 31.578125 -37.007812 31.015625 -38.34375 C 30.453125 -39.675781 29.492188 -40.820312 28.140625 -41.78125 C 26.785156 -42.738281 25.007812 -43.21875 22.8125 -43.21875 L 15.234375 -43.21875 Z M 15.234375 -25.609375"/></g><g id="f"><path d="M 15.234375 -51.078125 L 15.234375 0 L 7.015625 0 L 7.015625 -51.078125 Z M 8.75 -63.828125 L 13.53125 -54.421875 L 8.609375 -54.421875 L -0.015625 -63.828125 Z M 8.75 -63.828125"/></g><g id="g"><path d="M 17.632812 5.710938 C 17.210938 5.632812 17.132812 5.441406 16.828125 5.175781 C 14.410156 3.335938 11.5 2.988281 8.664062 2.988281 C 7.664062 2.988281 6.707031 3.027344 5.75 3.066406 C 4.792969 3.066406 3.640625 3.296875 2.722656 3.296875 C 2.722656 2.722656 2.796875 2.566406 2.796875 1.878906 C 2.835938 1.1875 2.914062 1.148438 3.371094 0.804688 C 6.746094 -1.609375 12.457031 -4.253906 16.480469 -5.40625 C 17.171875 -5.558594 18.4375 -6.019531 19.125 -6.019531 L 17.9375 2.644531 C 17.785156 3.640625 17.632812 4.675781 17.632812 5.710938 Z M 19.394531 -7.398438 C 9.542969 -5.136719 3.527344 -0.613281 3.066406 -0.5 C 3.066406 -2.796875 3.527344 -5.097656 3.71875 -7.28125 C 4.023438 -11.230469 5.289062 -20.125 5.980469 -23.996094 C 6.09375 -24.609375 6.859375 -28.171875 6.09375 -28.785156 C 5.941406 -28.902344 5.789062 -28.9375 5.710938 -28.9375 C 5.519531 -28.9375 5.441406 -28.785156 5.441406 -28.785156 C 4.90625 -28.515625 5.136719 -28.671875 4.792969 -27.136719 C 3.566406 -21.042969 2.644531 -14.910156 1.839844 -8.777344 L 1.417969 -4.40625 C 1.417969 -2.953125 1.148438 -1.496094 1.074219 -0.078125 C 1.035156 0.957031 1.148438 1.148438 0.535156 1.761719 C -0.535156 2.835938 -0.804688 4.332031 0.691406 4.445312 C 0.691406 6.515625 0.269531 8.890625 0.269531 10.273438 C 0.269531 12.609375 0.078125 15.21875 0.078125 18.089844 C 0.078125 18.550781 0.382812 19.125 0.804688 19.125 C 1.878906 19.125 1.648438 18.320312 1.6875 17.324219 L 2.070312 12.113281 C 2.070312 11.308594 2.109375 10.386719 2.222656 9.503906 L 2.722656 4.523438 C 2.988281 4.253906 8.546875 4.214844 9.773438 4.214844 C 12.304688 4.214844 14.796875 5.058594 16.175781 6.246094 C 17.476562 7.320312 17.285156 7.246094 17.210938 9.121094 C 17.132812 10.925781 16.941406 12.035156 16.941406 14.183594 C 16.941406 14.640625 17.285156 15.101562 17.746094 15.101562 C 18.128906 15.101562 18.589844 14.71875 18.898438 13.53125 C 19.316406 11.882812 19.28125 11.652344 19.28125 10.003906 C 19.28125 7.972656 18.589844 9.621094 19.164062 5.980469 L 21.003906 -6.515625 L 24.300781 -7.207031 C 26.332031 -7.511719 28.9375 -8.050781 31.046875 -8.050781 C 31.085938 -8.050781 31.160156 -8.050781 31.238281 -8.050781 C 31.507812 -8.050781 31.773438 -8.011719 32.003906 -8.011719 C 32.351562 -8.011719 32.65625 -8.085938 32.695312 -8.472656 C 32.808594 -9.121094 31.929688 -9.351562 30.742188 -9.351562 C 28.324219 -9.351562 24.453125 -8.472656 23.648438 -8.316406 C 23.152344 -8.242188 21.65625 -7.972656 21.273438 -7.820312 C 21.542969 -11.117188 24.300781 -22.921875 25.183594 -26.371094 C 25.605469 -27.941406 25.949219 -28.324219 25.71875 -29.550781 C 25.488281 -29.589844 25.296875 -29.628906 25.105469 -29.628906 C 24.492188 -29.628906 24.492188 -29.128906 23.957031 -27.484375 C 22.613281 -23.535156 20.699219 -14.757812 19.894531 -10.425781 C 19.738281 -9.429688 19.585938 -8.355469 19.394531 -7.398438 Z M 19.394531 -7.398438"/></g><g id="h"><path d="M 1.917969 -0.882812 C 1.074219 -2.644531 2.835938 -6.09375 3.105469 -7.207031 C 4.445312 -6.324219 3.488281 -1.304688 1.917969 -0.882812 Z M 0 -2.183594 C 0 -0.191406 0.84375 0.804688 1.839844 0.804688 C 2.988281 0.804688 4.40625 -0.535156 4.984375 -3.179688 C 5.824219 -7.128906 3.984375 -7.78125 3.792969 -8.507812 C 3.984375 -8.816406 4.332031 -9.046875 4.445312 -9.3125 C 4.5625 -9.621094 4.332031 -10.234375 3.832031 -10.234375 C 1.953125 -10.234375 0 -3.910156 0 -2.183594 Z M 0 -2.183594"/></g><g id="i"><path d="M 2.03125 -3.105469 L 2.109375 -3.105469 C 3.792969 -3.21875 5.25 -8.664062 6.976562 -9.8125 C 6.976562 -8.664062 7.320312 -7.28125 8.507812 -7.28125 C 9.542969 -7.28125 10.925781 -9.277344 11.691406 -9.8125 C 11.691406 -7.589844 10.617188 -3.949219 11.730469 -1.148438 C 12.152344 -0.0390625 12.839844 0.382812 13.570312 0.382812 C 14.832031 0.382812 16.289062 -0.84375 17.285156 -2.300781 C 17.554688 -2.683594 17.707031 -2.875 17.9375 -3.179688 C 18.167969 -3.566406 18.285156 -3.792969 18.511719 -4.140625 C 18.78125 -4.5625 19.625 -5.789062 19.625 -6.246094 C 19.625 -6.515625 19.394531 -6.746094 19.242188 -6.746094 C 18.398438 -6.746094 18.207031 -6.019531 17.863281 -5.480469 C 16.863281 -3.832031 15.0625 -1.035156 13.953125 -1.035156 C 13.300781 -1.035156 12.878906 -1.878906 12.878906 -4.214844 C 12.878906 -6.363281 13.570312 -10.464844 12.878906 -11.269531 C 12.6875 -11.5 12.457031 -11.574219 12.226562 -11.574219 C 11.996094 -11.574219 11.765625 -11.5 11.539062 -11.382812 C 11.117188 -11.152344 10.886719 -10.847656 10.539062 -10.464844 C 9.851562 -9.851562 8.96875 -8.738281 8.394531 -8.664062 C 8.394531 -9.890625 8.125 -11.382812 6.976562 -11.382812 C 6.054688 -11.382812 4.945312 -9.429688 4.523438 -8.699219 L 2.722656 -5.671875 C 2.644531 -5.597656 2.605469 -5.558594 2.53125 -5.480469 C 2.53125 -9.351562 4.371094 -11.078125 2.414062 -11.078125 C 1.035156 -11.078125 -0.652344 -3.105469 2.03125 -3.105469 Z M 2.03125 -3.105469"/></g><g id="j"><path d="M 1.761719 -6.9375 C 2.03125 -7.894531 3.296875 -9.390625 4.332031 -9.582031 C 4.214844 -8.355469 2.722656 -7.4375 1.761719 -6.9375 Z M 0.0390625 -6.019531 C 0.0390625 -4.945312 0 -3.984375 0.917969 -3.066406 C 1.570312 -2.414062 2.339844 -2.144531 3.144531 -2.144531 C 5.480469 -2.144531 8.125 -4.484375 9.542969 -5.902344 C 9.890625 -6.324219 9.890625 -6.363281 9.773438 -6.9375 C 8.625 -6.9375 9.238281 -6.785156 7.664062 -5.558594 C 7.398438 -5.367188 7.28125 -5.210938 6.976562 -4.984375 C 6.210938 -4.40625 4.597656 -3.296875 3.257812 -3.296875 C 2.796875 -3.296875 2.339844 -3.449219 1.992188 -3.792969 C 1.339844 -4.445312 1.417969 -5.058594 1.417969 -5.863281 C 2.605469 -5.941406 3.984375 -7.050781 4.597656 -7.742188 C 5.789062 -9.238281 5.789062 -10.769531 4.101562 -10.769531 C 2.261719 -10.769531 0.0390625 -7.933594 0.0390625 -6.019531 Z M 0.0390625 -6.019531"/></g><g id="l"><path d="M 2.605469 -4.597656 C 2.605469 -2.835938 2.875 -1.339844 4.40625 -0.304688 C 5.175781 0.191406 5.941406 0.421875 6.746094 0.421875 C 8.585938 0.421875 10.386719 -0.726562 11.882812 -1.800781 C 13.222656 -2.796875 13.570312 -3.335938 14.640625 -4.253906 L 16.023438 -3.105469 C 16.75 -2.414062 20.046875 0.34375 20.507812 0.34375 C 21.425781 0.34375 19.703125 -1.1875 19.585938 -1.265625 L 18.820312 -2.070312 C 18.285156 -2.757812 16.136719 -4.867188 15.601562 -5.136719 C 15.832031 -5.441406 16.367188 -5.980469 16.671875 -6.246094 C 16.902344 -6.476562 17.058594 -6.515625 17.285156 -6.785156 L 19.511719 -9.085938 C 19.664062 -9.277344 19.96875 -9.46875 19.96875 -9.773438 C 19.96875 -9.964844 19.816406 -10.117188 19.625 -10.117188 C 19.355469 -10.117188 15.5625 -6.363281 14.910156 -5.941406 L 12.726562 -8.011719 C 12.535156 -8.203125 12.535156 -8.277344 12.304688 -8.472656 C 10.769531 -10.003906 9.660156 -11.921875 9.160156 -14.027344 C 9.542969 -14.296875 10.082031 -14.949219 10.464844 -15.332031 C 11.730469 -16.480469 13.109375 -17.515625 14.410156 -18.628906 L 15.90625 -19.96875 C 16.25 -20.351562 16.558594 -20.699219 16.558594 -21.195312 C 16.558594 -21.695312 16.214844 -21.925781 15.636719 -21.925781 C 13.914062 -21.925781 10.195312 -19.816406 8.816406 -17.515625 C 8.472656 -16.902344 8.125 -16.097656 8.050781 -15.410156 C 7.894531 -14.488281 8.394531 -14.910156 7.128906 -13.53125 C 5.210938 -11.5 2.605469 -7.128906 2.605469 -4.597656 Z M 6.898438 -0.882812 L 6.4375 -0.882812 C 4.636719 -0.882812 3.757812 -2.453125 3.757812 -4.371094 C 3.757812 -7.28125 6.363281 -10.886719 8.203125 -12.992188 C 8.316406 -11.84375 10.003906 -9.046875 10.925781 -8.125 L 12.152344 -6.746094 C 12.570312 -6.285156 13.570312 -5.40625 13.875 -4.984375 C 13.683594 -4.714844 12.765625 -3.949219 12.457031 -3.679688 C 11.078125 -2.53125 8.855469 -0.882812 6.898438 -0.882812 Z M 9.3125 -15.867188 C 9.542969 -17.976562 13.148438 -20.542969 15.101562 -20.773438 C 14.910156 -20.507812 15.023438 -20.621094 14.757812 -20.46875 L 13.683594 -19.511719 C 12.765625 -18.78125 11.652344 -17.9375 10.808594 -17.132812 Z M 9.3125 -15.867188"/></g><g id="m"><path d="M 17.515625 -7.628906 C 17.9375 -8.472656 20.390625 -11.765625 21.195312 -13.03125 C 23.457031 -16.75 26.21875 -22.421875 25.527344 -26.714844 C 25.183594 -28.746094 24.1875 -29.742188 22.960938 -29.742188 C 19.929688 -29.742188 16.097656 -23.804688 14.488281 -21.121094 C 12.34375 -17.132812 10.386719 -12.609375 9.085938 -8.242188 L 8.546875 -6.515625 C 8.394531 -6.019531 8.277344 -5.25 7.933594 -4.792969 C 7.933594 -5.40625 8.050781 -5.824219 8.164062 -6.476562 L 8.738281 -11.421875 C 9.085938 -13.722656 9.429688 -15.90625 9.542969 -18.207031 C 9.660156 -19.433594 9.8125 -20.351562 9.8125 -21.65625 C 9.8125 -23.726562 10.082031 -26.484375 8.777344 -28.09375 C 8.433594 -28.554688 8.050781 -28.746094 7.628906 -28.746094 C 5.824219 -28.746094 3.832031 -24.800781 3.296875 -23.648438 L 2.109375 -21.042969 C 1.226562 -18.667969 0.421875 -16.175781 0.152344 -13.605469 C -0.0390625 -11.996094 -0.152344 -10.15625 0.5 -8.664062 C 0.882812 -7.894531 1.339844 -7.511719 2.144531 -7.511719 C 2.414062 -7.511719 2.757812 -7.550781 3.105469 -7.628906 C 3.449219 -9.160156 2.109375 -7.859375 1.53125 -9.351562 C 1.113281 -10.578125 1.265625 -12.609375 1.457031 -13.992188 C 2.03125 -17.898438 3.640625 -22.078125 5.789062 -25.296875 C 6.171875 -25.988281 6.746094 -27.0625 7.589844 -27.136719 C 7.78125 -26.410156 7.894531 -25.835938 8.050781 -24.992188 C 8.125 -24.261719 8.050781 -23.074219 8.050781 -22.269531 C 8.050781 -20.699219 7.859375 -19.011719 7.589844 -17.441406 C 6.9375 -11.039062 5.902344 -4.792969 5.328125 1.6875 L 4.597656 8.890625 C 4.523438 9.890625 4.371094 10.425781 5.328125 10.617188 C 5.902344 10.347656 5.941406 10.273438 6.09375 9.621094 L 6.824219 4.753906 C 7.207031 2.683594 7.78125 0.882812 8.277344 -1.113281 C 10.195312 -8.699219 14.375 -20.851562 19.777344 -26.257812 C 20.46875 -26.945312 21.808594 -28.289062 22.769531 -28.289062 C 23.265625 -28.289062 23.6875 -27.902344 23.878906 -26.90625 C 24.570312 -23.457031 21.964844 -17.707031 20.773438 -15.5625 C 18.933594 -12.417969 16.828125 -9.734375 14.796875 -6.785156 C 14.527344 -6.4375 14.335938 -6.132812 14.066406 -5.75 C 13.644531 -5.25 12.535156 -3.757812 13.796875 -3.527344 C 13.914062 -3.527344 13.992188 -3.488281 14.066406 -3.488281 C 14.296875 -3.488281 14.335938 -3.601562 14.488281 -3.679688 C 16.214844 -4.792969 16.519531 -5.824219 19.703125 -6.859375 C 20.160156 -7.015625 20.621094 -7.089844 21.003906 -7.089844 C 24.609375 -7.089844 24.800781 -1.035156 24.339844 1.917969 L 24.339844 2.03125 C 24.148438 2.722656 23.535156 2.875 22.382812 3.527344 C 18.285156 5.902344 14.71875 7.703125 10.886719 10.695312 C 9.199219 11.996094 7.550781 13.761719 6.554688 15.675781 C 4.371094 19.894531 6.59375 23.113281 10.347656 23.113281 C 12.648438 23.113281 15.523438 21.925781 18.320312 19.125 C 22.230469 15.21875 24.644531 10.117188 25.644531 4.714844 C 26.101562 2.453125 25.644531 3.371094 28.441406 1.304688 C 29.054688 0.84375 29.628906 0.421875 30.164062 -0.113281 L 33.386719 -3.105469 C 33.691406 -3.335938 33.882812 -3.527344 34.113281 -3.832031 C 34.496094 -4.140625 34.574219 -4.332031 34.839844 -4.714844 C 35.1875 -4.984375 35.339844 -5.210938 35.609375 -5.597656 C 35.992188 -6.09375 35.953125 -6.171875 35.800781 -6.785156 C 35.722656 -6.785156 35.648438 -6.785156 35.570312 -6.785156 C 34.574219 -6.785156 34.613281 -6.324219 33.921875 -5.558594 C 33 -4.597656 31.507812 -3.027344 30.546875 -2.222656 L 28.707031 -0.691406 C 28.171875 -0.269531 26.753906 0.996094 26.101562 1.148438 C 26.101562 -2.988281 25.871094 -8.242188 21.351562 -8.585938 C 21.234375 -8.585938 21.121094 -8.625 21.003906 -8.625 C 19.738281 -8.625 18.628906 -7.894531 17.515625 -7.628906 Z M 10.273438 21.808594 C 7.050781 21.808594 5.789062 18.667969 8.890625 14.679688 C 9.621094 13.761719 10.960938 12.457031 11.84375 11.765625 L 15.21875 9.3125 L 23.996094 4.292969 C 23.996094 5.480469 22.769531 9.121094 22.269531 10.273438 C 20.351562 14.566406 17.785156 18.742188 13.453125 20.929688 C 12.6875 21.3125 11.382812 21.808594 10.273438 21.808594 Z M 10.273438 21.808594"/></g><g id="n"><path d="M 0 -3.871094 C 0 -2.492188 0.113281 -1.839844 1.53125 -1.839844 C 2.644531 -1.839844 3.832031 -5.441406 4.5625 -5.941406 C 4.5625 -4.292969 5.789062 -2.300781 7.703125 -2.300781 C 8.355469 -2.300781 9.085938 -2.53125 9.851562 -3.066406 L 11 -3.984375 C 12.957031 -5.863281 12.726562 -6.824219 12.152344 -6.824219 C 11.921875 -6.824219 11.652344 -6.707031 11.460938 -6.4375 C 10.925781 -5.863281 10.808594 -5.519531 10.082031 -4.867188 C 9.238281 -4.023438 8.433594 -3.566406 7.703125 -3.566406 C 6.898438 -3.566406 6.210938 -4.179688 5.902344 -5.558594 C 5.558594 -7.015625 6.210938 -8.738281 4.867188 -8.738281 C 4.371094 -8.738281 2.796875 -5.480469 2.03125 -4.292969 L 1.726562 -3.832031 C 1.53125 -3.601562 1.648438 -3.757812 1.53125 -3.640625 C 1.53125 -4.90625 2.070312 -6.363281 2.566406 -7.167969 C 3.679688 -9.085938 4.445312 -9.621094 5.019531 -9.621094 C 5.75 -9.621094 6.210938 -8.738281 6.746094 -8.738281 C 7.742188 -8.738281 6.746094 -10.925781 4.945312 -10.925781 C 2.261719 -10.925781 0 -6.054688 0 -3.871094 Z M 0 -3.871094"/></g><g id="o"><path d="M 0.0390625 -4.675781 C 0.0390625 -3.371094 -0.152344 -1.496094 1.609375 -1.496094 C 2.796875 -1.496094 4.597656 -4.40625 5.210938 -5.480469 C 5.441406 -5.902344 5.980469 -6.785156 6.285156 -6.976562 C 6.285156 -5.136719 6.4375 -1.953125 8.96875 -1.953125 C 10.117188 -1.953125 11.382812 -2.757812 12.417969 -3.71875 C 12.878906 -4.140625 14.640625 -5.597656 14.640625 -6.246094 C 14.640625 -6.667969 14.335938 -6.746094 14.027344 -6.746094 C 13.300781 -6.746094 10.769531 -3.179688 9.085938 -3.179688 C 8.355469 -3.179688 7.78125 -3.832031 7.550781 -5.671875 C 7.4375 -6.667969 7.933594 -9.199219 6.898438 -9.199219 C 6.171875 -9.199219 5.941406 -8.585938 5.441406 -7.859375 L 3.144531 -4.484375 C 2.757812 -3.984375 2.339844 -3.257812 1.726562 -3.066406 C 1.148438 -5.632812 3.488281 -9.660156 3.488281 -9.8125 C 3.488281 -10.15625 3.371094 -10.15625 3.335938 -10.425781 C 3.066406 -10.578125 2.835938 -10.617188 2.644531 -10.617188 C 2.339844 -10.617188 2.070312 -10.464844 1.800781 -10.15625 C 0.84375 -8.929688 0.0390625 -6.324219 0.0390625 -4.675781 Z M 0.0390625 -4.675781"/></g><g id="p"><path d="M -10.769531 -17.09375 C -10.769531 -16.558594 -10.386719 -16.445312 -9.964844 -16.445312 C -9.734375 -16.445312 -9.503906 -16.480469 -9.3125 -16.519531 C -8.96875 -17.25 -9.351562 -17.09375 -8.394531 -17.476562 C -7.933594 -17.671875 -7.589844 -17.9375 -7.128906 -18.128906 C -4.753906 -19.050781 -2.566406 -19.703125 -0.0390625 -20.316406 C 0.34375 -20.429688 1.226562 -20.582031 1.457031 -20.660156 L 1.113281 -17.09375 C 1.074219 -16.597656 1.035156 -15.753906 0.957031 -15.253906 C 0.765625 -14.144531 0.726562 -8.96875 0.726562 -7.511719 L 0.613281 -5.710938 C 0.613281 -2.914062 0.5 1.648438 0.726562 4.40625 C 0.726562 5.328125 0.765625 6.707031 1.761719 6.707031 C 2.757812 6.707031 2.183594 4.0625 2.183594 3.179688 C 2.109375 1.496094 2.144531 -6.171875 2.261719 -7.320312 C 2.339844 -8.125 2.261719 -9.851562 2.261719 -10.960938 C 2.261719 -11.5 2.375 -11.5 2.375 -11.996094 C 2.375 -12.378906 2.339844 -12.839844 2.375 -13.183594 L 3.144531 -21.042969 C 4.0625 -21.234375 9.890625 -22.347656 11.996094 -22.347656 C 12.265625 -22.347656 12.457031 -22.347656 12.609375 -22.308594 C 13.070312 -22.191406 12.957031 -22.347656 13.070312 -21.964844 C 14.527344 -21.964844 14.066406 -23.496094 12.265625 -23.496094 C 9.925781 -23.496094 7.664062 -23.113281 5.441406 -22.691406 C 4.867188 -22.613281 4.0625 -22.382812 3.449219 -22.382812 C 3.449219 -23.609375 4.214844 -22.613281 4.214844 -23.609375 C 4.214844 -23.839844 4.179688 -23.996094 4.179688 -24.109375 C 4.140625 -24.492188 4.214844 -24.1875 4.214844 -24.644531 C 4.214844 -25.257812 3.910156 -25.757812 3.488281 -25.757812 C 2.988281 -25.757812 2.375 -25.066406 1.992188 -22.996094 C 1.726562 -21.695312 1.839844 -22.039062 0.230469 -21.617188 C -1.953125 -21.003906 -10.769531 -18.820312 -10.769531 -17.09375 Z M -10.769531 -17.09375"/></g><g id="q"><path d="M 1.113281 15.371094 C 0.5 15.371094 -0.113281 15.140625 -0.421875 14.757812 C -1.953125 13.109375 -0.421875 10.003906 0.5 8.699219 C 1.457031 7.246094 2.375 6.054688 3.601562 4.828125 C 3.910156 4.5625 4.0625 4.253906 4.292969 4.0625 L 8.050781 0.726562 C 8.355469 0.5 8.585938 0.34375 8.890625 0.152344 C 8.699219 2.53125 6.9375 9.3125 5.789062 11.421875 C 4.867188 13.070312 3.296875 15.371094 1.113281 15.371094 Z M 1.992188 -3.371094 C 1.992188 -7.050781 4.253906 -9.621094 2.566406 -9.621094 C 1.304688 -9.621094 0.382812 -5.789062 0.382812 -4.140625 C 0.382812 -2.796875 0.996094 -1.953125 1.839844 -1.953125 C 2.261719 -1.953125 2.722656 -2.183594 3.179688 -2.605469 C 4.214844 -3.566406 5.40625 -5.519531 6.171875 -6.746094 C 6.785156 -7.628906 9.660156 -12.648438 10.003906 -12.878906 C 10.003906 -8.472656 9.660156 -5.863281 9.199219 -1.953125 C 9.160156 -1.265625 8.816406 -1.265625 8.125 -0.652344 C 7.820312 -0.421875 7.664062 -0.34375 7.398438 -0.113281 C 4.0625 2.261719 -2.144531 8.625 -2.144531 12.839844 C -2.144531 15.140625 -0.691406 16.480469 1.1875 16.480469 C 3.71875 16.480469 5.902344 14.183594 7.015625 12.074219 C 8.890625 9.007812 10.15625 3.179688 10.695312 -0.613281 C 10.769531 -1.148438 10.695312 -1.226562 11.078125 -1.496094 C 12.570312 -2.53125 14.144531 -3.527344 15.714844 -4.40625 C 16.175781 -4.675781 18.628906 -5.941406 18.628906 -6.515625 C 18.628906 -6.824219 18.476562 -6.9375 18.285156 -6.9375 C 17.707031 -6.9375 16.671875 -6.132812 16.445312 -5.980469 L 10.960938 -2.796875 C 10.960938 -3.871094 11.308594 -6.363281 11.308594 -8.277344 L 11.308594 -11.230469 C 11.308594 -11.996094 11.34375 -14.832031 10.539062 -14.832031 C 9.734375 -14.832031 9.734375 -14.566406 9.121094 -13.570312 C 7.78125 -11.308594 3.949219 -4.371094 1.992188 -3.371094 Z M 1.992188 -3.371094"/></g></defs><g fill="#1C2120"><use x="38.961" y="181.117" xmlns:xlink="http://www.w3.org/1999/xlink" xlink:href="#a" xlink:type="simple" xlink:actuate="onLoad" xlink:show="embed"/></g><g fill="#1C2120"><use x="90.54" y="181.117" xmlns:xlink="http://www.w3.org/1999/xlink" xlink:href="#b" xlink:type="simple" xlink:actuate="onLoad" xlink:show="embed"/></g><g fill="#1C2120"><use x="123.522" y="181.117" xmlns:xlink="http://www.w3.org/1999/xlink" xlink:href="#c" xlink:type="simple" xlink:actuate="onLoad" xlink:show="embed"/></g><g fill="#1C2120"><use x="193.486" y="181.117" xmlns:xlink="http://www.w3.org/1999/xlink" xlink:href="#d" xlink:type="simple" xlink:actuate="onLoad" xlink:show="embed"/></g><g fill="#1C2120"><use x="253.274" y="181.117" xmlns:xlink="http://www.w3.org/1999/xlink" xlink:href="#e" xlink:type="simple" xlink:actuate="onLoad" xlink:show="embed"/></g><g fill="#1C2120"><use x="311.027" y="181.117" xmlns:xlink="http://www.w3.org/1999/xlink" xlink:href="#f" xlink:type="simple" xlink:actuate="onLoad" xlink:show="embed"/></g><g fill="#1C2120"><use x="89.281" y="232.601" xmlns:xlink="http://www.w3.org/1999/xlink" xlink:href="#g" xlink:type="simple" xlink:actuate="onLoad" xlink:show="embed"/></g><g fill="#1C2120"><use x="119.776" y="232.601" xmlns:xlink="http://www.w3.org/1999/xlink" xlink:href="#h" xlink:type="simple" xlink:actuate="onLoad" xlink:show="embed"/></g><g fill="#1C2120"><use x="126.519" y="232.601" xmlns:xlink="http://www.w3.org/1999/xlink" xlink:href="#i" xlink:type="simple" xlink:actuate="onLoad" xlink:show="embed"/></g><g fill="#1C2120"><use x="144.41" y="232.601" xmlns:xlink="http://www.w3.org/1999/xlink" xlink:href="#j" xlink:type="simple" xlink:actuate="onLoad" xlink:show="embed"/></g><g fill="#1C2120"><use x="152.724" y="232.601" xmlns:xlink="http://www.w3.org/1999/xlink" xlink:href="#k" xlink:type="simple" xlink:actuate="onLoad" xlink:show="embed"/></g><g fill="#1C2120"><use x="162.646" y="232.601" xmlns:xlink="http://www.w3.org/1999/xlink" xlink:href="#l" xlink:type="simple" xlink:actuate="onLoad" xlink:show="embed"/></g><g fill="#1C2120"><use x="184.675" y="232.601" xmlns:xlink="http://www.w3.org/1999/xlink" xlink:href="#k" xlink:type="simple" xlink:actuate="onLoad" xlink:show="embed"/></g><g fill="#1C2120"><use x="194.597" y="232.601" xmlns:xlink="http://www.w3.org/1999/xlink" xlink:href="#m" xlink:type="simple" xlink:actuate="onLoad" xlink:show="embed"/></g><g fill="#1C2120"><use x="228.886" y="232.601" xmlns:xlink="http://www.w3.org/1999/xlink" xlink:href="#j" xlink:type="simple" xlink:actuate="onLoad" xlink:show="embed"/></g><g fill="#1C2120"><use x="237.199" y="232.601" xmlns:xlink="http://www.w3.org/1999/xlink" xlink:href="#n" xlink:type="simple" xlink:actuate="onLoad" xlink:show="embed"/></g><g fill="#1C2120"><use x="248.309" y="232.601" xmlns:xlink="http://www.w3.org/1999/xlink" xlink:href="#o" xlink:type="simple" xlink:actuate="onLoad" xlink:show="embed"/></g><g fill="#1C2120"><use x="261.258" y="232.601" xmlns:xlink="http://www.w3.org/1999/xlink" xlink:href="#p" xlink:type="simple" xlink:actuate="onLoad" xlink:show="embed"/></g><g fill="#1C2120"><use x="265.702" y="232.601" xmlns:xlink="http://www.w3.org/1999/xlink" xlink:href="#q" xlink:type="simple" xlink:actuate="onLoad" xlink:show="embed"/></g><path stroke-linecap="round" transform="matrix(1.50114 0 0 1.62712 0 227.72)" fill="none" d="M 0.499616 -0.000711347 L 40.46913 -0.000711347" stroke="#1C2120"/><path stroke-linecap="round" transform="matrix(1.50114 0 0 1.62712 313.546 229.105)" fill="none" d="M 0.500177 0.000212765 L 40.469691 0.000212765" stroke="#1C2120"/></svg>